:SAMPLES-PER-SECOND 30
:FULLY-SPECIFIED
:DEGREES
175
root  -62.0772 22.7378 -15.9025 49.1804 61.2202 19.0188
RightUpLeg  -33.1916 -24.0426 -12.9847
RightLeg  84.7221 -3.90335 -23.8538
RightFoot  -35.5288 5.53187 17.5287
RightToes  -3.59851 -0.0100176 -0.0337455
Spine  18.7744 1.56626 -5.69736
Spine1  29.6114 5.94459 -4.55565
HEad  -4.8303 -21.2839 17.4542
LeftShoulder1  0 -2.42657e-020 -4.95415e-022
LeftArm  -25.5496 -41.4465 -71.7623
LeftForeArm  27.0847 -31.2507 -6.13626
LeftHand  -0.125161 -9.44372 1.14609
RightShoulder  0 2.42657e-020 1.07489e-018
RightArm  -53.9609 37.9734 62.1833
RightForeArm  52.5349 14.7923 2.63619
RightHand  -3.59136 18.7189 -21.1761
LeftUpLeg  -80.5837 5.49938 18.1712
LeftLeg  77.8021 -4.0669 -14.0224
LeftFoot  -15.6964 0.340021 2.4664
LeftToes  -61.9235 1.71452e-006 7.46813e-008
176
root  -61.903 22.9156 -15.9503 51.2599 63.037 20.5287
RightUpLeg  -35.4339 -23.9951 -15.156
RightLeg  88.0165 -1.31652 -14.0465
RightFoot  -33.6271 2.98116 10.2214
RightToes  -18.7783 -0.0747537 -0.166928
Spine  18.3994 0.696345 -4.59068
Spine1  29.5075 3.36914 -2.54065
HEad  -7.6676 -22.1293 19.9187
LeftShoulder1  0 -2.42657e-020 -4.95415e-022
LeftArm  -25.2888 -39.8056 -70.3631
LeftForeArm  25.3136 -34.0116 -6.82958
LeftHand  -0.0803281 -9.0715 0.6431
RightShoulder  0 2.42657e-020 1.07489e-018
RightArm  -52.8967 30.9737 62.9925
RightForeArm  37.0754 21.4295 3.95593
RightHand  -3.03675 15.1147 -22.2364
LeftUpLeg  -81.713 3.96377 18.6551
LeftLeg  77.3521 -4.30907 -14.4065
LeftFoot  -15.0566 0.318056 2.40633
LeftToes  -62.6319 1.71452e-006 7.46813e-008
177
root  -61.8342 23.1774 -15.758 48.36 63.5135 17.0307
RightUpLeg  -38.3802 -22.1168 -17.6713
RightLeg  89.268 -0.852616 -12.2648
RightFoot  -31.9251 2.41123 8.79357
RightToes  -22.3833 -0.0951391 -0.195703
Spine  18.1043 0.257398 -3.36161
Spine1  29.3919 1.59327 -0.49309
HEad  -10.3149 -20.455 19.9767
LeftShoulder1  0 -2.42657e-020 -4.95415e-022
LeftArm  -25.7211 -36.8544 -69.5743
LeftForeArm  25.0168 -37.4451 -7.75961
LeftHand  -0.144643 -9.005 1.46786
RightShoulder  0 2.42657e-020 1.07489e-018
RightArm  -55.3076 25.6212 65.7391
RightForeArm  31.7697 32.8801 6.54077
RightHand  -3.35849 14.4578 -25.6693
LeftUpLeg  -80.7414 4.38356 20.4631
LeftLeg  76.4391 -4.32365 -13.6747
LeftFoot  -15.2756 0.298578 2.22624
LeftToes  -62.3686 1.71452e-006 7.46813e-008
178
root  -61.877 23.4472 -15.4889 44.1521 63.6622 12.0405
RightUpLeg  -41.9758 -21.2764 -20.3239
RightLeg  87.9669 -1.16147 -12.4628
RightFoot  -30.4069 2.25954 8.67877
RightToes  -23.115 -0.0994954 -0.201383
Spine  17.9253 -0.413815 -1.79186
Spine1  29.3209 -0.24375 1.19031
HEad  -11.9142 -16.0229 17.223
LeftShoulder1  0 -2.42657e-020 -4.95415e-022
LeftArm  -26.8556 -33.3948 -69.5793
LeftForeArm  22.3099 -41.025 -8.8285
LeftHand  -0.104075 -8.70418 0.998305
RightShoulder  0 2.42657e-020 1.07489e-018
RightArm  -53.1237 23.7786 67.7781
RightForeArm  38.7802 43.4395 9.61609
RightHand  -3.73121 14.5259 -28.3154
LeftUpLeg  -79.7667 5.73416 22.4119
LeftLeg  75.7515 -4.21787 -12.8267
LeftFoot  -15.2262 0.259149 1.93865
LeftToes  -61.3239 1.71452e-006 7.46813e-008
179
root  -61.9396 23.645 -15.1429 39.8789 62.1348 6.62866
RightUpLeg  -46.5995 -20.8802 -23.2151
RightLeg  84.2881 -1.95575 -12.2229
RightFoot  -27.3552 1.87548 8.07351
RightToes  -25.2536 -0.11264 -0.217662
Spine  17.6856 -0.757578 -0.873717
Spine1  29.0388 -1.57196 2.3911
HEad  -13.0495 -12.1827 15.0034
LeftShoulder1  0 -2.42657e-020 -4.95415e-022
LeftArm  -26.3482 -30.8266 -70.578
LeftForeArm  20.5875 -43.1695 -9.52752
LeftHand  -0.0775594 -7.99358 0.740695
RightShoulder  0 2.42657e-020 1.07489e-018
RightArm  -46.3417 23.2825 69.4954
RightForeArm  48.0671 53.8423 13.9865
RightHand  -4.35671 14.5252 -32.8821
LeftUpLeg  -78.2114 8.06013 24.3811
LeftLeg  75.2153 -4.11264 -12.1409
LeftFoot  -15.3188 0.223721 1.66343
LeftToes  -61.5448 1.71452e-006 7.46813e-008
180
root  -62.0059 23.6067 -14.6937 36.0987 59.3745 1.92847
RightUpLeg  -51.7995 -21.2717 -25.7324
RightLeg  79.9364 -2.55018 -10.6633
RightFoot  -25.204 1.53021 7.21468
RightToes  -33.1205 -0.165989 -0.273058
Spine  18.0951 -0.449978 0.0337984
Spine1  29.4546 -1.61933 3.9853
HEad  -13.9072 -9.87842 12.2534
LeftShoulder1  0 -2.42657e-020 -4.95415e-022
LeftArm  -23.328 -31.5556 -73.8014
LeftForeArm  21.4389 -42.4062 -9.27316
LeftHand  -0.0770563 -8.0169 0.73027
RightShoulder  0 2.42657e-020 1.07489e-018
RightArm  -40.1802 26.261 67.4039
RightForeArm  66.2768 60.2062 17.9434
RightHand  -5.38108 14.8804 -39.2284
LeftUpLeg  -75.6934 10.7957 26.4976
LeftLeg  75.0639 -3.80473 -11.1631
LeftFoot  -16.8382 0.202138 1.36566
LeftToes  -60.3299 1.71452e-006 7.46813e-008
181
root  -62.204 23.3894 -14.1029 35.1948 56.4261 -0.298676
RightUpLeg  -58.1093 -22.7344 -27.8199
RightLeg  75.4844 -3.0564 -9.45421
RightFoot  -24.4294 1.43917 7.01881
RightToes  -30.6061 -0.148117 -0.256157
Spine  18.8494 0.459272 1.14233
Spine1  30.1527 -0.132682 5.4644
HEad  -15.0457 -9.45066 9.71417
LeftShoulder1  0 -2.42657e-020 -4.95415e-022
LeftArm  -17.5657 -35.4959 -79.0241
LeftForeArm  20.3946 -39.0841 -8.23481
LeftHand  -0.0343906 -8.32153 0.102869
RightShoulder  0 2.42657e-020 1.07489e-018
RightArm  -39.0099 33.6124 61.3571
RightForeArm  79.055 58.23 16.4764
RightHand  -6.17516 15.022 -44.1474
LeftUpLeg  -73.5672 13.7569 27.9457
LeftLeg  74.6572 -3.68472 -10.5775
LeftFoot  -18.3773 0.150923 0.932965
LeftToes  -59.8315 1.71452e-006 7.46813e-008
182
root  -62.4461 23.1134 -13.313 37.5294 53.0464 0.293503
RightUpLeg  -65.2394 -25.2862 -29.4047
RightLeg  70.9952 -3.30463 -8.02482
RightFoot  -16.9935 0.825731 5.90085
RightToes  -35.7841 -0.185711 -0.29009
Spine  19.1262 1.8793 1.46192
Spine1  30.067 2.71948 5.36248
HEad  -14.7212 -9.68921 8.70891
LeftShoulder1  0 -2.42657e-020 -4.95415e-022
LeftArm  -11.347 -38.9672 -85.0306
LeftForeArm  20.7226 -36.5347 -7.50479
LeftHand  0.0539874 -8.62833 -1.08645
RightShoulder  0 2.42657e-020 1.07489e-018
RightArm  -40.2892 40.5382 53.4806
RightForeArm  76.4645 50.2626 12.1642
RightHand  -6.53825 14.8282 -47.0459
LeftUpLeg  -70.8188 16.5925 28.2038
LeftLeg  72.504 -3.7172 -9.51742
LeftFoot  -20.1789 0.0636429 0.357661
LeftToes  -59.2527 1.71452e-006 7.46813e-008
183
root  -62.6774 22.8789 -11.9767 38.6631 50.3804 1.24368
RightUpLeg  -70.0898 -26.6517 -29.5424
RightLeg  69.3521 -1.23008 -2.879
RightFoot  -6.60489 0.211965 4.05013
RightToes  -47.3072 -0.279327 -0.352571
Spine  19.7355 3.2383 2.01993
Spine1  31.0387 6.00947 4.81454
HEad  -14.394 -9.70167 7.18635
LeftShoulder1  0 -2.42657e-020 -4.95415e-022
LeftArm  -6.80719 -40.9616 -90.617
LeftForeArm  23.134 -35.5804 -7.24447
LeftHand  -0.0014452 -8.42839 -0.350628
RightShoulder  0 2.42657e-020 1.07489e-018
RightArm  -46.645 47.9128 45.6191
RightForeArm  72.4619 38.8736 8.08958
RightHand  -6.22061 17.734 -38.0501
LeftUpLeg  -66.1046 18.7318 28.9333
LeftLeg  69.3889 -3.99118 -8.7814
LeftFoot  -20.1476 -0.0417578 -0.235059
LeftToes  -60.9347 1.71452e-006 7.46813e-008
184
root  -63.0455 22.8253 -10.0054 38.112 49.6995 1.88261
RightUpLeg  -71.1444 -26.7318 -27.0192
RightLeg  74.2118 0.0747763 -0.0188037
RightFoot  -13.6552 0.432156 3.98596
RightToes  -47.6917 -0.282655 -0.354323
Spine  20.5328 4.39842 3.56612
Spine1  32.8671 10.1475 4.04254
HEad  -12.7894 -9.79109 5.1217
LeftShoulder1  0 -2.42657e-020 -4.95415e-022
LeftArm  -4.65665 -39.6959 -93.9519
LeftForeArm  19.8913 -37.5919 -7.80106
LeftHand  0.0715349 -8.14076 -1.37634
RightShoulder  0 2.42657e-020 1.07489e-018
RightArm  -58.176 54.9054 36.5071
RightForeArm  62.9616 24.386 4.52618
RightHand  -4.25464 17.7189 -26.4476
LeftUpLeg  -58.8662 19.9142 31.2082
LeftLeg  62.9406 -5.25431 -8.76525
LeftFoot  -18.1161 -0.0558126 -0.350098
LeftToes  -63.0178 1.71452e-006 7.46813e-008
